<svg width="62" height="69" viewBox="0 0 62 69" fill="none" xmlns="http://www.w3.org/2000/svg">
<path d="M47.7001 48.3793C44.1944 51.1839 39.2864 53.2873 34.3783 53.2873C23.1599 53.2873 15.4473 44.8736 15.4473 33.6552C15.4473 22.4368 23.1599 14.7241 34.3783 14.7241C39.2864 14.7241 44.1944 16.1264 47.7001 19.6322L49.8036 21.7356L61.022 11.2184L58.2174 9.11493C51.907 3.50573 43.4933 0 34.3783 0C14.7461 0 0.0219727 14.7241 0.0219727 34.3563C0.0219727 53.9885 14.7461 68.7126 34.3783 68.7126C43.4933 68.7126 51.907 65.2069 58.2174 59.5977L61.022 57.4943L49.8036 46.2759L47.7001 48.3793Z" fill="#17313B"/>
<path d="M33.6771 45.5745C39.8728 45.5745 44.8955 40.5518 44.8955 34.3561C44.8955 28.1603 39.8728 23.1377 33.6771 23.1377C27.4813 23.1377 22.4587 28.1603 22.4587 34.3561C22.4587 40.5518 27.4813 45.5745 33.6771 45.5745Z" fill="#EF4335"/>
</svg>
