<svg width="32" height="32" viewBox="0 0 32 32" fill="none" xmlns="http://www.w3.org/2000/svg">
<path d="M6.39322 9.40802C6.39322 7.74268 7.74255 6.39335 9.40789 6.39202H10.7799C11.5759 6.39202 12.3386 6.07602 12.9039 5.51602L13.8626 4.55602C15.0372 3.37468 16.9466 3.36935 18.1279 4.54402L18.1292 4.54535L18.1412 4.55602L19.1012 5.51602C19.6666 6.07735 20.4292 6.39202 21.2252 6.39202H22.5959C24.2612 6.39202 25.6119 7.74135 25.6119 9.40802V10.7773C25.6119 11.5733 25.9266 12.3373 26.4879 12.9027L27.4479 13.8627C28.6292 15.0373 28.6359 16.9467 27.4612 18.128L27.4599 18.1293L27.4479 18.1414L26.4879 19.1013C25.9266 19.6653 25.6119 20.428 25.6119 21.224V22.596C25.6119 24.2613 24.2626 25.6107 22.5972 25.6107H22.5959H21.2226C20.4266 25.6107 19.6626 25.9267 19.0986 26.488L18.1386 27.4467C16.9652 28.628 15.0572 28.6347 13.8759 27.4627C13.8746 27.4613 13.8732 27.46 13.8719 27.4587L13.8599 27.4467L12.9012 26.488C12.3372 25.9267 11.5732 25.612 10.7772 25.6107H9.40789C7.74255 25.6107 6.39322 24.2613 6.39322 22.596V21.2213C6.39322 20.4253 6.07722 19.6627 5.51589 19.0987L4.55722 18.1387C3.37589 16.9653 3.36922 15.0573 4.54255 13.876C4.54255 13.8747 4.54389 13.8733 4.54522 13.872L4.55722 13.86L5.51589 12.9C6.07722 12.3347 6.39322 11.572 6.39322 10.7747V9.40802" stroke="white" stroke-width="2.5" stroke-linecap="round" stroke-linejoin="round"/>
<path d="M12.5755 19.4289L19.4288 12.5756" stroke="white" stroke-width="2" stroke-linecap="round" stroke-linejoin="round"/>
<path d="M19.3274 19.3333H19.3394" stroke="white" stroke-width="2" stroke-linecap="round" stroke-linejoin="round"/>
<path d="M12.6607 12.6667H12.6727" stroke="white" stroke-width="2" stroke-linecap="round" stroke-linejoin="round"/>
</svg>
