<svg width="30" height="30" viewBox="0 0 30 30" fill="none" xmlns="http://www.w3.org/2000/svg">
<path d="M14.3654 3.48621H9.69162C5.84787 3.48621 3.43787 6.20746 3.43787 10.06V20.4525C3.43787 24.305 5.83662 27.0262 9.69162 27.0262H20.7216C24.5779 27.0262 26.9766 24.305 26.9766 20.4525V15.4175" stroke="white" stroke-width="2.5" stroke-linecap="round" stroke-linejoin="round"/>
<path fill-rule="evenodd" clip-rule="evenodd" d="M11.0347 13.6511L20.376 4.30986C21.5397 3.14736 23.426 3.14736 24.5897 4.30986L26.111 5.83111C27.2747 6.99486 27.2747 8.88236 26.111 10.0449L16.7247 19.4311C16.216 19.9399 15.526 20.2261 14.806 20.2261H10.1235L10.241 15.5011C10.2585 14.8061 10.5422 14.1436 11.0347 13.6511Z" stroke="white" stroke-width="2.5" stroke-linecap="round" stroke-linejoin="round"/>
<path d="M18.9565 5.75317L24.664 11.4607" stroke="white" stroke-width="2.5" stroke-linecap="round" stroke-linejoin="round"/>
</svg>
