<svg width="75" height="75" viewBox="0 0 75 75" fill="none" xmlns="http://www.w3.org/2000/svg">
<path d="M70.4997 38.2812C70.4997 35.8438 70.281 33.5 69.8747 31.25H37.4997V44.5625H55.9997C55.1872 48.8438 52.7497 52.4688 49.0935 54.9062V63.5625H60.2497C66.7497 57.5625 70.4997 48.75 70.4997 38.2812Z" fill="#4285F4"/>
<path d="M37.4999 71.875C46.7812 71.875 54.5624 68.8125 60.2499 63.5625L49.0937 54.9062C46.0312 56.9687 42.1249 58.2187 37.4999 58.2187C28.5624 58.2187 20.9687 52.1875 18.2499 44.0625H6.81241V52.9375C12.4687 64.1562 24.0624 71.875 37.4999 71.875Z" fill="#34A853"/>
<path d="M18.2495 44.0313C17.562 41.9688 17.1558 39.7813 17.1558 37.5C17.1558 35.2188 17.562 33.0313 18.2495 30.9688V22.0938H6.81201C4.46826 26.7188 3.12451 31.9375 3.12451 37.5C3.12451 43.0625 4.46826 48.2813 6.81201 52.9063L15.7183 45.9688L18.2495 44.0313Z" fill="#FBBC05"/>
<path d="M37.4999 16.8125C42.5624 16.8125 47.0624 18.5625 50.6562 21.9375L60.4999 12.0938C54.5312 6.53125 46.7812 3.125 37.4999 3.125C24.0624 3.125 12.4687 10.8438 6.81241 22.0938L18.2499 30.9688C20.9687 22.8438 28.5624 16.8125 37.4999 16.8125Z" fill="#EA4335"/>
</svg>
