<svg width="26" height="25" viewBox="0 0 26 25" fill="none" xmlns="http://www.w3.org/2000/svg">
<path fill-rule="evenodd" clip-rule="evenodd" d="M20.7374 4.66278C22.8499 4.66278 24.5499 6.37528 24.5499 8.48778V12.7878C21.4749 14.5878 17.4124 15.6753 12.9874 15.6753C8.56238 15.6753 4.51238 14.5878 1.43738 12.7878V8.47528C1.43738 6.36278 3.14988 4.66278 5.26238 4.66278H20.7374Z" stroke="#5C6671" stroke-width="1.5" stroke-linecap="round" stroke-linejoin="round"/>
<path d="M17.3689 4.65726V4.19976C17.3689 2.67476 16.1314 1.43726 14.6064 1.43726H11.3814C9.8564 1.43726 8.6189 2.67476 8.6189 4.19976V4.65726" stroke="#5C6671" stroke-width="1.5" stroke-linecap="round" stroke-linejoin="round"/>
<path d="M1.46802 17.3538L1.70427 20.49C1.86427 22.6038 3.62552 24.2375 5.74427 24.2375H20.243C22.3618 24.2375 24.123 22.6038 24.283 20.49L24.5193 17.3538" stroke="#5C6671" stroke-width="1.5" stroke-linecap="round" stroke-linejoin="round"/>
</svg>
