<svg width="171" height="169" viewBox="0 0 171 169" fill="none" xmlns="http://www.w3.org/2000/svg">
<path fill-rule="evenodd" clip-rule="evenodd" d="M92.2728 9.11143C112.399 5.92041 137.097 -7.21125 151.946 5.30836C167.396 18.3352 149.96 42.0755 153.53 60.7604C156.296 75.2364 174.945 86.9981 170.244 101.072C165.546 115.136 143.303 116.385 131.524 126.638C116.467 139.744 113.256 167.473 92.2728 168.943C71.8005 170.377 63.8159 144.423 48.2667 132.47C34.5888 121.955 14.6789 117.73 6.8052 103.243C-1.54595 87.8768 -2.37797 68.9633 5.23684 53.2967C12.5646 38.2207 30.2421 30.1975 46.262 22.0648C60.5879 14.792 76.0401 11.6852 92.2728 9.11143Z" fill="#E2E7FF"/>
</svg>
