<svg width="21" height="21" viewBox="0 0 21 21" fill="none" xmlns="http://www.w3.org/2000/svg">
<path d="M9.492 1.289H5.753C2.678 1.289 0.75 3.466 0.75 6.548V14.862C0.75 17.944 2.669 20.121 5.753 20.121H14.577C17.662 20.121 19.581 17.944 19.581 14.862V10.834" stroke="#001F3F" stroke-width="1.5" stroke-linecap="round" stroke-linejoin="round"/>
<path fill-rule="evenodd" clip-rule="evenodd" d="M6.82763 9.42093L14.3006 1.94793C15.2316 1.01793 16.7406 1.01793 17.6716 1.94793L18.8886 3.16493C19.8196 4.09593 19.8196 5.60593 18.8886 6.53593L11.3796 14.0449C10.9726 14.4519 10.4206 14.6809 9.84463 14.6809H6.09863L6.19263 10.9009C6.20663 10.3449 6.43363 9.81493 6.82763 9.42093Z" stroke="#001F3F" stroke-width="1.5" stroke-linecap="round" stroke-linejoin="round"/>
<path d="M13.165 3.10254L17.731 7.66854" stroke="#001F3F" stroke-width="1.5" stroke-linecap="round" stroke-linejoin="round"/>
</svg>
