<svg width="20" height="20" viewBox="0 0 20 20" fill="none" xmlns="http://www.w3.org/2000/svg">
<path d="M0.75 0.749878L2.83 1.10988L3.793 12.5829C3.87 13.5199 4.653 14.2389 5.593 14.2359H16.502C17.399 14.2379 18.16 13.5779 18.287 12.6899L19.236 6.13188C19.342 5.39888 18.833 4.71888 18.101 4.61288C18.037 4.60388 3.164 4.59888 3.164 4.59888" stroke="#001F3F" stroke-width="1.5" stroke-linecap="round" stroke-linejoin="round"/>
<path d="M12.125 8.2948H14.898" stroke="#001F3F" stroke-width="1.5" stroke-linecap="round" stroke-linejoin="round"/>
<path fill-rule="evenodd" clip-rule="evenodd" d="M5.15435 17.7025C5.45535 17.7025 5.69835 17.9465 5.69835 18.2465C5.69835 18.5475 5.45535 18.7915 5.15435 18.7915C4.85335 18.7915 4.61035 18.5475 4.61035 18.2465C4.61035 17.9465 4.85335 17.7025 5.15435 17.7025Z" fill="#001F3F" stroke="#001F3F" stroke-width="1.5" stroke-linecap="round" stroke-linejoin="round"/>
<path fill-rule="evenodd" clip-rule="evenodd" d="M16.4346 17.7025C16.7356 17.7025 16.9796 17.9465 16.9796 18.2465C16.9796 18.5475 16.7356 18.7915 16.4346 18.7915C16.1336 18.7915 15.8906 18.5475 15.8906 18.2465C15.8906 17.9465 16.1336 17.7025 16.4346 17.7025Z" fill="#001F3F" stroke="#001F3F" stroke-width="1.5" stroke-linecap="round" stroke-linejoin="round"/>
</svg>
