<svg width="22" height="23" viewBox="0 0 22 23" fill="none" xmlns="http://www.w3.org/2000/svg">
<path fill-rule="evenodd" clip-rule="evenodd" d="M18.0714 18.5699C15.0152 21.6263 10.4898 22.2867 6.78642 20.574C6.23971 20.3539 5.79148 20.176 5.36537 20.176C4.17849 20.183 2.70117 21.3339 1.93336 20.567C1.16555 19.7991 2.31726 18.3206 2.31726 17.1266C2.31726 16.7004 2.14642 16.2602 1.92632 15.7124C0.212831 12.0096 0.874109 7.48269 3.93026 4.42721C7.8316 0.524432 14.17 0.524432 18.0714 4.4262C21.9797 8.33501 21.9727 14.6681 18.0714 18.5699Z" stroke="#001F3F" stroke-width="1.5" stroke-linecap="round" stroke-linejoin="round"/>
<path d="M14.9398 11.913H14.9488" stroke="#001F3F" stroke-width="2" stroke-linecap="round" stroke-linejoin="round"/>
<path d="M10.9301 11.913H10.9391" stroke="#001F3F" stroke-width="2" stroke-linecap="round" stroke-linejoin="round"/>
<path d="M6.92128 11.913H6.93028" stroke="#001F3F" stroke-width="2" stroke-linecap="round" stroke-linejoin="round"/>
</svg>
